<?xml version="1.0" encoding="utf-8"?>
<!-- Generator: Adobe Illustrator 22.1.0, SVG Export Plug-In . SVG Version: 6.00 Build 0)  -->
<svg version="1.1" id="レイヤー_3" xmlns="http://www.w3.org/2000/svg" xmlns:xlink="http://www.w3.org/1999/xlink" x="0px"
	 y="0px" viewBox="0 0 578.6 229.1" style="enable-background:new 0 0 578.6 229.1;" xml:space="preserve">
<polygon points="92,72 200,0 68,189 125,184 0,229 136,61 "/>
<polygon points="160.2,70.4 176.5,62 155.7,115.7 129,131.3 "/>
<polygon points="181,62 197,52 190,93.6 160.9,114.6 "/>
<polygon points="205.2,51 291,51 285.7,85 251,85 254.3,73 202,73 "/>
<polygon points="200,121 195.3,145 279,145 282.3,121 "/>
<polygon points="297.7,51 284.3,145 332,145 323.8,121 314.3,121 322.7,51 "/>
<polygon points="328.7,51 392.8,51 384.3,85 358,85 361.2,73.1 326.3,73.5 "/>
<polygon points="329.5,121 386.5,121 392.8,145 337.1,145 "/>
<polygon points="378.6,0.1 486.6,72.1 422.3,51.9 413,90.2 578.6,229.1 437.6,183.9 497.8,188.6 387.6,97.2 405.6,31.9 "/>
</svg>
