<?xml version="1.0" encoding="utf-8"?>
<!-- Generator: Adobe Illustrator 22.1.0, SVG Export Plug-In . SVG Version: 6.00 Build 0)  -->
<svg version="1.1" xmlns="http://www.w3.org/2000/svg" xmlns:xlink="http://www.w3.org/1999/xlink" x="0px" y="0px"
	 viewBox="0 0 199.9 226.4" style="enable-background:new 0 0 199.9 226.4;" xml:space="preserve">
<style type="text/css">
	.st0{display:none;}
	.st1{display:inline;fill:#FFFFFF;}
	.st2{display:inline;}
	.st3{fill:#FFFFFF;}
</style>
<g id="レイヤー_4" class="st0">
	<circle class="st1" cx="94.5" cy="119.7" r="95.9"/>
</g>
<g id="レイヤー_1_xA0_画像_1_" class="st0">
	<g class="st2">
		<path d="M94.1,220.3c-16.2,0-32.1-3.9-46.3-11.3l0.2-0.2c14.3,7.5,30.3,11.4,46.5,11.4c12.2,0,24-2.2,34.8-6.2
			C118.2,218.1,106.4,220.3,94.1,220.3z"/>
		<path d="M191.5,80.9c-2.4,1.2-5.2,2.6-7.6,3.7c4.3,10.9,6.6,22.8,6.6,35.2c0,53.1-43.1,96.2-96.2,96.2c-17.2,0-33.4-4.5-47.4-12.5
			l-6,6.6c15.6,9.2,33.7,14.4,53.1,14.4c57.9,0,104.9-47,104.9-104.9C198.9,106,196.3,92.9,191.5,80.9L191.5,80.9z"/>
	</g>
	<g class="st2">
		<path d="M17.3,184.8C1.9,166.6-6.6,143.7-6.6,119.7C-6.6,64.2,38.6,19,94.1,19c15.4,0,30.5,3.5,44.2,10.2l-0.1,0.1
			c-13.6-6.6-28.7-10-43.8-10C38.9,19.3-6.1,64.4-6.1,119.8c0,23.8,8.4,46.6,23.6,64.7L17.3,184.8z"/>
		<path d="M94.1,14.8c-57.9,0-104.9,47-104.9,104.9c0,27.7,10.7,52.9,28.3,71.6l5.6-6.9c-15.5-17.1-25-39.8-25-64.7
			c0-53.1,43.1-96.2,96.2-96.2c15.9,0,30.9,3.9,44.1,10.7l8.1-5.4C131.1,19.9,113.2,14.8,94.1,14.8L94.1,14.8z"/>
	</g>
</g>
<g id="レイヤー_3">
	<polygon class="st3" points="199.9,0 144.3,39.2 161.1,34.9 0,226.4 94.9,159.6 70.4,166.6 	"/>
	<polygon class="st3" points="175.1,40.1 183.4,33.6 174.4,80.9 161,91.1 	"/>
	<polygon class="st3" points="196.9,22.1 186.4,31.1 178.9,77.5 189.2,70.3 	"/>
</g>
</svg>
