<?xml version="1.0" encoding="utf-8"?>
<!-- Generator: Adobe Illustrator 22.1.0, SVG Export Plug-In . SVG Version: 6.00 Build 0)  -->
<svg version="1.1" xmlns="http://www.w3.org/2000/svg" xmlns:xlink="http://www.w3.org/1999/xlink" x="0px" y="0px"
	 viewBox="0 0 210.7 226.4" style="enable-background:new 0 0 210.7 226.4;" xml:space="preserve">
<style type="text/css">
	.st0{fill:#FFFFFF;}
</style>
<g id="レイヤー_4">
	<circle class="st0" cx="105.3" cy="119.7" r="95.9"/>
</g>
<g id="レイヤー_1_xA0_画像_1_">
	<g>
		<path d="M104.9,220.3c-16.2,0-32.1-3.9-46.3-11.3l0.2-0.2c14.3,7.5,30.3,11.4,46.5,11.4c12.2,0,24-2.2,34.8-6.2
			C129,218.1,117.2,220.3,104.9,220.3z"/>
		<path d="M202.4,80.9c-2.4,1.2-5.2,2.6-7.6,3.7c4.3,10.9,6.6,22.8,6.6,35.2c0,53.1-43.1,96.2-96.2,96.2c-17.2,0-33.4-4.5-47.4-12.5
			l-6,6.6c15.6,9.2,33.7,14.4,53.1,14.4c57.9,0,104.9-47,104.9-104.9C209.8,106,207.1,92.9,202.4,80.9L202.4,80.9z"/>
	</g>
	<g>
		<path d="M28.1,184.8c-15.4-18.2-23.9-41.1-23.9-65.1C4.3,64.2,49.4,19,104.9,19c15.4,0,30.5,3.5,44.2,10.2l-0.1,0.1
			c-13.6-6.6-28.7-10-43.8-10C49.8,19.3,4.7,64.4,4.7,119.8c0,23.8,8.4,46.6,23.6,64.7L28.1,184.8z"/>
		<path d="M104.9,14.8C47,14.8,0,61.8,0,119.7c0,27.7,10.7,52.9,28.3,71.6l5.6-6.9c-15.5-17.1-25-39.8-25-64.7
			c0-53.1,43.1-96.2,96.2-96.2c15.9,0,30.9,3.9,44.1,10.7l8.1-5.4C141.9,19.9,124,14.8,104.9,14.8L104.9,14.8z"/>
	</g>
</g>
<g id="レイヤー_3">
	<polygon points="210.7,0 155.1,39.2 171.9,34.9 10.8,226.4 105.8,159.6 81.3,166.6 	"/>
	<polygon points="185.9,40.1 194.2,33.6 185.3,80.9 171.9,91.1 	"/>
	<polygon points="207.7,22.1 197.2,31.1 189.8,77.5 200,70.3 	"/>
</g>
</svg>
