<svg id="レイヤー_3" data-name="レイヤー 3" xmlns="http://www.w3.org/2000/svg" viewBox="0 0 578.62 229.06"><defs><style>.cls-1{fill:#fff;}</style></defs><title>アートボード 1</title><polygon class="cls-1" points="92 71.98 199.98 0 68 188.98 125 183.98 0 228.98 136 60.98 92 71.98"/><polygon class="cls-1" points="160.17 70.35 176.5 61.98 155.67 115.73 129 131.31 160.17 70.35"/><polygon class="cls-1" points="180.97 61.98 196.98 51.99 190 93.65 160.93 114.56 180.97 61.98"/><polygon class="cls-1" points="205.17 50.98 291 50.98 285.67 84.98 251 84.98 254.33 72.98 202 72.98 205.17 50.98"/><polygon class="cls-1" points="200 120.98 195.33 144.98 279 144.98 282.33 120.98 200 120.98"/><polygon class="cls-1" points="297.67 50.98 284.33 144.98 332 144.98 323.75 120.98 314.32 120.98 322.67 50.98 297.67 50.98"/><polygon class="cls-1" points="328.67 50.98 392.84 50.98 384.33 84.98 358 84.98 361.17 73.1 326.25 73.48 328.67 50.98"/><polygon class="cls-1" points="329.5 120.98 386.5 120.98 392.84 144.98 337.08 144.98 329.5 120.98"/><polygon class="cls-1" points="378.64 0.07 486.62 72.06 422.31 51.9 412.98 90.23 578.62 229.06 437.64 183.9 497.81 188.57 387.64 97.23 405.64 31.9 378.64 0.07"/></svg>